<svg width="36" height="36" viewBox="0 0 36 36" fill="none" xmlns="http://www.w3.org/2000/svg">
<path d="M18 18.8333C18.4602 18.8333 18.8333 18.4602 18.8333 18C18.8333 17.5398 18.4602 17.1667 18 17.1667C17.5398 17.1667 17.1667 17.5398 17.1667 18C17.1667 18.4602 17.5398 18.8333 18 18.8333Z" stroke="#5F77EC" stroke-width="2" stroke-linecap="round" stroke-linejoin="round"/>
<path d="M18 13C18.4602 13 18.8333 12.6269 18.8333 12.1667C18.8333 11.7064 18.4602 11.3333 18 11.3333C17.5398 11.3333 17.1667 11.7064 17.1667 12.1667C17.1667 12.6269 17.5398 13 18 13Z" stroke="#5F77EC" stroke-width="2" stroke-linecap="round" stroke-linejoin="round"/>
<path d="M18 24.6667C18.4602 24.6667 18.8333 24.2936 18.8333 23.8333C18.8333 23.3731 18.4602 23 18 23C17.5398 23 17.1667 23.3731 17.1667 23.8333C17.1667 24.2936 17.5398 24.6667 18 24.6667Z" stroke="#5F77EC" stroke-width="2" stroke-linecap="round" stroke-linejoin="round"/>
</svg>
